<?xml version="1.0" standalone="no"?>
<!DOCTYPE svg PUBLIC "-//W3C//DTD SVG 20010904//EN"
 "http://www.w3.org/TR/2001/REC-SVG-20010904/DTD/svg10.dtd">
<svg version="1.0" xmlns="http://www.w3.org/2000/svg"
 width="512.000000pt" height="512.000000pt" viewBox="0 0 512.000000 512.000000"
 preserveAspectRatio="xMidYMid meet">

<g transform="translate(0.000000,512.000000) scale(0.100000,-0.100000)"
fill="#808080" stroke="none">
<path d="M2155 4774 c-671 -55 -1254 -378 -1645 -912 -424 -579 -536 -1340
-298 -2030 155 -451 461 -844 873 -1121 267 -179 594 -301 929 -346 163 -22
509 -17 656 10 443 80 831 271 1140 561 70 67 80 80 80 111 0 46 -14 69 -50
82 -43 14 -62 4 -160 -84 -494 -446 -1141 -623 -1792 -490 -1000 204 -1705
1136 -1628 2151 69 914 721 1666 1611 1858 317 69 680 58 991 -30 699 -196
1249 -764 1428 -1474 24 -93 60 -313 60 -362 0 -7 -87 74 -194 180 -175 174
-196 192 -227 192 -56 -1 -96 -47 -84 -98 4 -19 94 -115 273 -294 147 -146
277 -271 290 -277 12 -7 33 -9 45 -6 12 4 147 131 300 283 251 251 277 280
277 310 0 44 -38 82 -81 82 -29 0 -55 -22 -231 -197 -124 -124 -199 -191 -201
-182 -3 8 -9 62 -15 120 -40 396 -215 819 -471 1139 -75 93 -253 271 -344 343
-312 246 -679 405 -1069 462 -109 15 -370 26 -463 19z"/>
<path d="M2134 3730 c-239 -62 -424 -246 -489 -485 -9 -34 -18 -122 -22 -202
l-6 -143 -66 0 c-107 -1 -194 -52 -244 -145 -22 -39 -22 -47 -22 -535 0 -489
0 -495 22 -536 28 -53 89 -107 144 -128 40 -15 118 -16 869 -14 l825 3 41 22
c22 12 56 39 74 59 67 77 65 58 65 594 0 536 2 517 -65 594 -49 55 -102 78
-195 85 l-80 6 -6 155 c-7 171 -18 221 -77 335 -50 96 -181 228 -279 278 -146
76 -334 98 -489 57z m330 -170 c134 -46 241 -140 300 -262 42 -90 56 -161 56
-295 l0 -103 -515 0 -515 0 0 109 c0 137 12 197 55 289 64 136 212 251 360
281 70 14 189 6 259 -19z m651 -836 c43 -17 45 -40 45 -504 0 -464 -2 -487
-45 -504 -9 -3 -376 -6 -816 -6 l-800 0 -24 25 -25 24 0 461 0 461 25 24 24
25 800 0 c440 0 807 -3 816 -6z"/>
<path d="M2219 2447 c-52 -35 -79 -82 -79 -139 0 -55 16 -91 54 -127 25 -23
26 -29 26 -134 0 -107 0 -109 29 -138 36 -36 70 -37 108 -5 28 24 28 26 28
138 l0 113 32 28 c111 98 38 287 -112 287 -38 0 -61 -6 -86 -23z"/>
</g>
</svg>
